HIERARCHY
ROOT Hips
{
	OFFSET	0.00	0.00	0.00
	CHANNELS 6 Xposition Yposition Zposition Zrotation Xrotation Yrotation
	JOINT LeftUpLeg
	{
		OFFSET	 0.126116	-0.014019	-0.065224
		CHANNELS 3 Zrotation Xrotation Yrotation
		JOINT LeftLeg
		{
			OFFSET	 0.000000	 0.000000	 0.569914
			CHANNELS 3 Zrotation Xrotation Yrotation
			JOINT LeftFoot
			{
				OFFSET	 0.000000	 0.000000	 0.544423
				CHANNELS 3 Zrotation Xrotation Yrotation
				JOINT LeftToeBase
				{
					OFFSET	 0.000000	 0.000000	 0.207117
					CHANNELS 3 Zrotation Xrotation Yrotation
					End Site
					{
						OFFSET	 0.000000	 0.000000	 0.207117
					}
				}
			}
		}
	}
	JOINT RightUpLeg
	{
		OFFSET	-0.124023	-0.008373	-0.065224
		CHANNELS 3 Zrotation Xrotation Yrotation
		JOINT RightLeg
		{
			OFFSET	 0.000000	 0.000000	 0.570047
			CHANNELS 3 Zrotation Xrotation Yrotation
			JOINT RightFoot
			{
				OFFSET	 0.000000	 0.000000	 0.544354
				CHANNELS 3 Zrotation Xrotation Yrotation
				JOINT RightToeBase
				{
					OFFSET	 0.000000	 0.000000	 0.207540
					CHANNELS 3 Zrotation Xrotation Yrotation
					End Site
					{
						OFFSET	 0.000000	 0.000000	 0.207540
					}
				}
			}
		}
	}
	JOINT Spine
	{
		OFFSET	 0.000184	-0.007763	 0.117403
		CHANNELS 3 Zrotation Xrotation Yrotation
		JOINT Spine1
		{
			OFFSET	 0.000000	 0.000000	 0.137269
			CHANNELS 3 Zrotation Xrotation Yrotation
			JOINT Spine2
			{
				OFFSET	 0.000000	 0.000000	 0.156879
				CHANNELS 3 Zrotation Xrotation Yrotation
				JOINT LeftShoulder
				{
					OFFSET	 0.080501	-0.002496	 0.160144
					CHANNELS 3 Zrotation Xrotation Yrotation
					JOINT LeftArm
					{
						OFFSET	 0.000000	 0.000000	 0.164363
						CHANNELS 3 Zrotation Xrotation Yrotation
						JOINT LeftForeArm
						{
							OFFSET	 0.000000	 0.000000	 0.364576
							CHANNELS 3 Zrotation Xrotation Yrotation
							JOINT LeftHand
							{
								OFFSET	 0.000000	 0.000000	 0.360812
								CHANNELS 3 Zrotation Xrotation Yrotation
								JOINT LeftHandIndex1
								{
									OFFSET	 0.000000	 0.000000	 0.086006
									CHANNELS 3 Zrotation Xrotation Yrotation
									JOINT LeftHandIndex2
									{
										OFFSET	 0.000000	 0.000000	 0.047236
										CHANNELS 3 Zrotation Xrotation Yrotation
										JOINT LeftHandIndex3
										{
											OFFSET	-0.004284	-0.000551	 0.038166
											CHANNELS 3 Zrotation Xrotation Yrotation
											End Site
											{
												OFFSET	-0.004284	-0.000551	 0.038166
											}
										}
									}
								}
							}
						}
					}
				}
				JOINT Neck
				{
					OFFSET	 0.000000	 0.000000	 0.176489
					CHANNELS 3 Zrotation Xrotation Yrotation
					JOINT Head
					{
						OFFSET	 0.000000	-0.001747	 0.077940
						CHANNELS 3 Zrotation Xrotation Yrotation
						End Site
						{
							OFFSET	 0.000000	-0.001747	 0.077940
						}
					}
				}
				JOINT RightShoulder
				{
					OFFSET	-0.080363	 0.000306	 0.159706
					CHANNELS 3 Zrotation Xrotation Yrotation
					JOINT RightArm
					{
						OFFSET	 0.000000	 0.000000	 0.164196
						CHANNELS 3 Zrotation Xrotation Yrotation
						JOINT RightForeArm
						{
							OFFSET	 0.000000	 0.000000	 0.365611
							CHANNELS 3 Zrotation Xrotation Yrotation
							JOINT RightHand
							{
								OFFSET	 0.000000	 0.000000	 0.360648
								CHANNELS 3 Zrotation Xrotation Yrotation
								JOINT RightHandIndex1
								{
									OFFSET	 0.000000	 0.000000	 0.069977
									CHANNELS 3 Zrotation Xrotation Yrotation
									JOINT RightHandIndex2
									{
										OFFSET	 0.000000	 0.000000	 0.052305
										CHANNELS 3 Zrotation Xrotation Yrotation
										JOINT RightHandIndex3
										{
											OFFSET	 0.009002	-0.000782	 0.042196
											CHANNELS 3 Zrotation Xrotation Yrotation
											End Site
											{
												OFFSET	 0.009002	-0.000782	 0.042196
											}
										}
									}
								}
							}
						}
					}
				}
			}
		}
	}
}
MOTION
Frames:    7
Frame Time: 0.03333334
 0.000074	 0.048387	 1.269881	-0.041782	 3.223225	 0.772252	 21.499660	-9.713335	 176.806400	 2.203510	-16.685220	 0.752737	 1.198469	 71.703580	-1.377097	-2.385833	 28.452750	 0.000004	-14.174980	-8.795093	-177.681200	-0.712112	-14.773640	 1.132828	 4.783012	 70.694830	 1.608374	 2.384659	 28.388700	-0.000001	-5.495623	 7.857678	-0.178500	 0.894272	-7.350809	 0.244901	-2.218664	 11.602370	 0.655852	-90.995680	 68.616840	-177.444800	-6.921317	-0.458557	-26.932620	 21.654360	 0.061105	-2.575016	-6.994533	-11.616950	-4.513683	-2.027600	 6.559038	 9.033609	-5.188889	 0.308190	 3.541030	-5.234859	 0.342567	 0.430617	 4.695444	 20.920600	-7.672450	-7.264856	-15.503700	 1.689481	 88.764240	 66.978660	 176.886800	 9.079018	 9.221844	 12.517720	-23.188220	-6.351083	 24.319490	 3.924982	-11.054430	 5.646615	 1.803333	 3.979147	-15.098590	 4.898592	 3.004813	-9.310344	 5.224449	 0.395017	 2.014677
-0.000533	 0.054727	 1.265713	 0.039588	 4.179614	 0.894056	 22.109680	-12.361980	 177.127300	 2.214171	-19.270550	 0.881746	 3.449864	 72.673150	-3.870964	-2.385833	 28.452750	 0.000004	-15.129220	-11.384840	-178.308500	-0.650120	-17.402160	 1.347214	 3.429721	 71.760930	 3.142571	 2.384659	 28.388700	-0.000001	-9.744259	 8.497391	-0.213156	 0.905455	-8.832598	 0.209553	-2.358301	 13.785280	 0.807198	-90.869860	 67.743470	-177.202500	-5.890067	 0.518360	-29.831250	 18.552900	 0.330555	-3.890757	-5.823206	-12.987270	-5.155394	-2.027600	 6.559038	 9.033609	-5.188889	 0.308190	 3.541030	-5.234859	 0.342567	 0.430617	 4.741066	 23.590920	-8.442017	-7.005679	-17.549500	 1.583400	 88.521760	 65.290850	 176.490500	 7.638453	 10.638350	 14.840100	-20.915350	-4.938603	 25.067430	 2.335556	-11.663490	 5.298787	 1.803333	 3.979147	-15.098590	 4.898592	 3.004813	-9.310344	 5.224449	 0.395017	 2.014677
-0.001780	 0.069079	 1.258407	 0.207197	 6.258315	 1.131910	 23.220740	-17.598800	 177.994700	 2.313573	-23.859690	 1.105023	 9.250867	 74.181240	-10.233020	-2.385832	 28.452790	-0.000001	-16.986260	-16.106930	-179.718200	-1.037177	-21.264600	 1.492495	-0.126373	 73.160730	 7.661402	 2.384659	 28.388700	-0.000001	-16.677140	 9.533293	-0.347738	 0.998056	-10.003540	 0.197157	-2.791243	 16.397000	 0.995514	-90.838510	 65.761540	-177.414400	-4.075691	 1.543041	-34.695030	 11.748370	 1.085713	-6.132115	-5.390422	-14.989510	-6.894610	-2.027600	 6.559038	 9.033609	-5.188889	 0.308190	 3.541030	-5.234859	 0.342567	 0.430617	 4.324116	 26.315300	-8.823797	-6.698284	-19.802650	 1.203442	 88.387340	 62.204430	 176.606600	 4.063299	 12.336640	 18.078140	-16.134520	-2.297430	 27.829230	-0.059486	-12.346340	 5.476135	 1.803333	 3.979147	-15.098590	 4.898592	 3.004813	-9.310344	 5.224449	 0.395017	 2.014677
-0.002424	 0.088303	 1.251058	 0.621016	 9.143662	 1.214887	 24.186230	-23.405250	 179.665600	 2.248922	-27.577770	 1.234676	 17.414250	 74.389290	-19.176900	-2.385833	 28.452760	 0.000004	-19.102150	-21.627690	 178.455800	-1.289252	-24.490950	 1.600932	-6.129282	 73.751700	 14.817060	 2.384659	 28.388700	-0.000001	-23.051490	 10.288250	-0.515911	 1.201047	-11.061080	 0.243498	-3.349768	 18.105040	 1.296695	-91.641740	 64.747700	-179.647000	-2.452135	 3.430676	-37.196760	 5.532877	 2.198738	-8.311224	-5.642246	-15.998350	-8.867334	-2.027600	 6.559038	 9.033609	-5.188889	 0.308190	 3.541030	-5.234859	 0.342567	 0.430617	 3.622230	 27.005710	-8.727962	-6.457807	-20.854640	 0.885833	 89.124650	 60.833180	 178.476700	-0.295787	 14.857940	 19.087610	-11.637430	 0.619782	 31.350890	-2.196119	-12.898300	 5.850761	 1.803333	 3.979147	-15.098590	 4.898592	 3.004813	-9.310344	 5.224449	 0.395017	 2.014677
-0.003945	 0.110905	 1.242762	 1.050870	 12.660910	 1.170531	 25.172830	-29.558460	-178.093000	 2.450810	-30.772540	 1.467935	 26.572110	 73.961980	-29.635780	-2.385832	 28.452790	-0.000001	-21.114850	-27.862930	 176.261400	-1.407374	-27.888590	 1.750823	-14.680930	 74.211650	 24.733840	 2.384659	 28.388700	-0.000001	-28.105270	 10.990250	-0.542264	 1.396834	-11.187220	 0.064533	-3.820428	 18.603530	 1.931015	-92.786060	 65.163600	 177.296200	-1.668004	 6.095655	-38.389790	 1.825455	 3.536557	-10.230460	-5.062283	-16.460120	-9.659857	-2.027600	 6.559038	 9.033609	-5.188889	 0.308190	 3.541030	-5.234859	 0.342567	 0.430617	 3.022164	 25.044740	-8.985075	-6.256391	-20.352320	 0.505921	 90.279690	 60.278360	-178.868000	-4.725877	 17.951360	 19.727370	-7.174671	 4.096210	 35.939110	-2.899177	-13.697430	 6.218442	 1.803333	 3.979147	-15.098590	 4.898592	 3.004813	-9.310344	 5.224449	 0.395017	 2.014677
-0.008946	 0.139613	 1.235587	 2.908829	 18.704590	 1.122968	 24.676060	-37.832730	-175.118500	 3.700086	-32.606030	 2.220998	 31.895650	 70.932070	-37.778430	-2.385833	 28.452760	 0.000004	-25.304780	-35.751900	 172.153300	-1.058332	-30.769230	 2.093943	-25.677690	 73.034720	 37.336450	 2.384659	 28.388700	-0.000001	-32.256070	 10.889980	-0.687530	 0.836267	-9.971718	-0.085004	-4.453999	 16.992060	 1.575874	-93.870350	 65.590360	 174.277900	-0.714742	 7.350431	-38.886760	-2.026778	 5.227378	-12.062540	-4.375720	-16.216630	-10.261900	-2.027600	 6.559038	 9.033609	-5.188889	 0.308190	 3.541030	-5.234859	 0.342567	 0.430617	 2.487566	 24.122420	-7.888844	-6.327992	-20.758400	-0.283895	 91.585700	 60.939580	-175.807100	-9.804235	 21.310630	 21.641150	-3.630100	 8.349405	 42.384080	-3.339247	-13.760090	 6.969529	 1.803333	 3.979147	-15.098590	 4.898592	 3.004813	-9.310344	 5.224449	 0.395017	 2.014677
-0.014413	 0.165399	 1.227023	 4.219692	 22.377290	 0.807405	 24.528520	-43.866050	-172.915600	 4.364280	-34.684220	 2.724813	 37.520790	 69.497360	-45.442380	-2.385833	 28.452750	 0.000004	-28.768870	-41.584880	 168.761300	-1.434639	-33.830520	 2.068406	-34.336900	 72.494790	 47.882480	 2.384659	 28.388700	-0.000001	-33.631380	 11.317760	-0.843781	 0.531397	-6.155885	-0.309946	-4.868073	 15.014960	 1.170649	-94.448940	 67.041260	 172.105600	-1.051677	 8.027708	-40.384940	-4.825807	 6.771520	-13.380390	-4.086679	-16.544520	-10.703490	-2.027600	 6.559038	 9.033609	-5.188889	 0.308190	 3.541030	-5.234859	 0.342567	 0.430617	 1.915136	 23.276790	-6.528767	-6.515429	-21.269070	-1.255466	 92.462630	 61.981610	-173.536800	-12.266800	 23.574620	 25.739140	-1.673280	 11.892510	 46.419060	-2.763334	-13.969080	 7.801568	 1.803333	 3.979147	-15.098590	 4.898592	 3.004813	-9.310344	 5.224449	 0.395017	 2.014677
